<svg width="26" height="27" viewBox="0 0 26 27" fill="none" xmlns="http://www.w3.org/2000/svg">
<g clip-path="url(#clip0)">
<path d="M25.5675 5.39995H24.2675V4.04997C24.2675 3.80146 24.0734 3.59997 23.8341 3.59997H17.4682C17.6345 3.29588 17.7367 2.95838 17.7676 2.61012C17.7415 1.14456 16.5786 -0.0226131 15.1676 1.84562e-05C14.3039 -0.00393657 13.4937 0.433754 13.0009 1.17005C12.5082 0.433754 11.6978 -0.00393657 10.8343 1.84562e-05C9.42302 -0.0226131 8.26015 1.14456 8.23433 2.61012C8.26522 2.95838 8.36721 3.29588 8.53373 3.59997H2.16774C1.92844 3.59997 1.73441 3.80146 1.73441 4.04997V5.39995H0.434427C0.195123 5.39995 0.00109863 5.60144 0.00109863 5.84995V26.5497C0.00109863 26.7984 0.195123 26.9997 0.434427 26.9997H25.5675C25.8068 26.9997 26.0008 26.7984 26.0008 26.5497V5.84995C26.0008 5.60144 25.8068 5.39995 25.5675 5.39995V5.39995ZM23.4008 4.49996V24.2997H13.4343V7.99687C14.4776 7.59192 16.0199 5.9486 16.9568 4.49996H23.4008ZM10.8343 0.900008C11.767 0.876937 12.542 1.64158 12.5676 2.61012C12.5676 2.85863 12.7616 3.06011 13.0009 3.06011C13.2402 3.06011 13.4343 2.85863 13.4343 2.61012C13.4804 1.65102 14.2427 0.89781 15.1676 0.89781C16.0922 0.89781 16.8546 1.65102 16.9009 2.61012C16.9009 3.63974 13.8758 7.19993 13.0009 7.19993C12.126 7.19993 9.10099 3.63974 9.10099 2.61012C9.12638 1.64158 9.90142 0.876937 10.8343 0.900008ZM2.60107 4.49996H9.04513C9.98182 5.9486 11.5241 7.59236 12.5676 7.99687V24.2997H2.60107V4.49996ZM25.1341 26.0997H0.867755V6.29994H1.73441V24.7497C1.73441 24.9984 1.92844 25.1997 2.16774 25.1997H23.8341C24.0734 25.1997 24.2675 24.9984 24.2675 24.7497V6.29994H25.1341V26.0997Z" fill="#1A7A77"/>
<path d="M4.76695 9.0001H6.50028C6.73959 9.0001 6.93362 8.79883 6.93362 8.5501C6.93362 8.30159 6.73959 8.1001 6.50028 8.1001H4.76695C4.52764 8.1001 4.33362 8.30159 4.33362 8.5501C4.33362 8.79883 4.52764 9.0001 4.76695 9.0001Z" fill="#1A7A77"/>
<path d="M10.4002 9.90009H4.76695C4.52764 9.90009 4.33362 10.1016 4.33362 10.3501C4.33362 10.5988 4.52764 10.8001 4.76695 10.8001H10.4002C10.6395 10.8001 10.8335 10.5988 10.8335 10.3501C10.8335 10.1016 10.6395 9.90009 10.4002 9.90009Z" fill="#1A7A77"/>
<path d="M10.4002 11.7001H4.76695C4.52764 11.7001 4.33362 11.9016 4.33362 12.1501C4.33362 12.3988 4.52764 12.6001 4.76695 12.6001H10.4002C10.6395 12.6001 10.8335 12.3988 10.8335 12.1501C10.8335 11.9016 10.6395 11.7001 10.4002 11.7001Z" fill="#1A7A77"/>
<path d="M10.4002 13.5001H4.76695C4.52764 13.5001 4.33362 13.7015 4.33362 13.9501C4.33362 14.1988 4.52764 14.4 4.76695 14.4H10.4002C10.6395 14.4 10.8335 14.1988 10.8335 13.9501C10.8335 13.7015 10.6395 13.5001 10.4002 13.5001V13.5001Z" fill="#1A7A77"/>
<path d="M10.4002 15.3H4.76695C4.52764 15.3 4.33362 15.5015 4.33362 15.75C4.33362 15.9987 4.52764 16.2 4.76695 16.2H10.4002C10.6395 16.2 10.8335 15.9987 10.8335 15.75C10.8335 15.5015 10.6395 15.3 10.4002 15.3Z" fill="#1A7A77"/>
<path d="M10.4002 17.1H4.76695C4.52764 17.1 4.33362 17.3015 4.33362 17.55C4.33362 17.7988 4.52764 18 4.76695 18H10.4002C10.6395 18 10.8335 17.7988 10.8335 17.55C10.8335 17.3015 10.6395 17.1 10.4002 17.1Z" fill="#1A7A77"/>
<path d="M10.4002 18.9H4.76695C4.52764 18.9 4.33362 19.1015 4.33362 19.35C4.33362 19.5987 4.52764 19.8 4.76695 19.8H10.4002C10.6395 19.8 10.8335 19.5987 10.8335 19.35C10.8335 19.1015 10.6395 18.9 10.4002 18.9Z" fill="#1A7A77"/>
<path d="M8.23362 20.7H4.76695C4.52764 20.7 4.33362 20.9014 4.33362 21.15C4.33362 21.3987 4.52764 21.6 4.76695 21.6H8.23362C8.47292 21.6 8.66695 21.3987 8.66695 21.15C8.66695 20.9014 8.47292 20.7 8.23362 20.7Z" fill="#1A7A77"/>
<path d="M15.6002 9.0001H17.3335C17.5728 9.0001 17.7669 8.79883 17.7669 8.5501C17.7669 8.30159 17.5728 8.1001 17.3335 8.1001H15.6002C15.3609 8.1001 15.1669 8.30159 15.1669 8.5501C15.1669 8.79883 15.3609 9.0001 15.6002 9.0001Z" fill="#1A7A77"/>
<path d="M15.1669 10.3501C15.1669 10.5988 15.3609 10.8001 15.6002 10.8001H21.2335C21.4728 10.8001 21.6668 10.5988 21.6668 10.3501C21.6668 10.1016 21.4728 9.90009 21.2335 9.90009H15.6002C15.3609 9.90009 15.1669 10.1016 15.1669 10.3501Z" fill="#1A7A77"/>
<path d="M21.2335 11.7001H15.6002C15.3609 11.7001 15.1669 11.9016 15.1669 12.1501C15.1669 12.3988 15.3609 12.6001 15.6002 12.6001H21.2335C21.4728 12.6001 21.6668 12.3988 21.6668 12.1501C21.6668 11.9016 21.4728 11.7001 21.2335 11.7001Z" fill="#1A7A77"/>
<path d="M21.2335 13.5001H15.6002C15.3609 13.5001 15.1669 13.7015 15.1669 13.9501C15.1669 14.1988 15.3609 14.4 15.6002 14.4H21.2335C21.4728 14.4 21.6668 14.1988 21.6668 13.9501C21.6668 13.7015 21.4728 13.5001 21.2335 13.5001V13.5001Z" fill="#1A7A77"/>
<path d="M21.2335 15.3H15.6002C15.3609 15.3 15.1669 15.5015 15.1669 15.75C15.1669 15.9987 15.3609 16.2 15.6002 16.2H21.2335C21.4728 16.2 21.6668 15.9987 21.6668 15.75C21.6668 15.5015 21.4728 15.3 21.2335 15.3Z" fill="#1A7A77"/>
<path d="M21.2335 17.1H15.6002C15.3609 17.1 15.1669 17.3015 15.1669 17.55C15.1669 17.7988 15.3609 18 15.6002 18H21.2335C21.4728 18 21.6668 17.7988 21.6668 17.55C21.6668 17.3015 21.4728 17.1 21.2335 17.1Z" fill="#1A7A77"/>
<path d="M21.2335 18.9H15.6002C15.3609 18.9 15.1669 19.1015 15.1669 19.35C15.1669 19.5987 15.3609 19.8 15.6002 19.8H21.2335C21.4728 19.8 21.6668 19.5987 21.6668 19.35C21.6668 19.1015 21.4728 18.9 21.2335 18.9Z" fill="#1A7A77"/>
<path d="M19.0669 20.7H15.6002C15.3609 20.7 15.1669 20.9014 15.1669 21.15C15.1669 21.3987 15.3609 21.6 15.6002 21.6H19.0669C19.3062 21.6 19.5002 21.3987 19.5002 21.15C19.5002 20.9014 19.3062 20.7 19.0669 20.7Z" fill="#1A7A77"/>
</g>
<defs>
<clipPath id="clip0">
<rect width="26" height="27" fill="white"/>
</clipPath>
</defs>
</svg>
