<svg width="31" height="28" viewBox="0 0 31 28" fill="none" xmlns="http://www.w3.org/2000/svg">
<path d="M26.522 16.7129C25.5005 17.9021 24.4007 19.0196 23.2305 20.0577C22.137 21.0225 21.0357 21.9594 19.9066 22.8191L19.9057 22.8197C18.9035 23.5849 17.8843 24.3123 16.8524 25.0487L16.8517 25.0492C16.4116 25.3633 15.9692 25.6791 15.5249 26C15.169 25.748 14.8154 25.501 14.4644 25.2559C13.5285 24.6022 12.6105 23.9611 11.7146 23.268C10.3243 22.191 8.99075 21.0497 7.63039 19.874C5.96565 18.4363 4.4659 16.8122 3.15969 15.0326L3.15866 15.0312C2.21084 13.7456 1.55272 12.2633 1.23151 10.6895L1.2264 10.6646L1.21977 10.6399C1.12818 10.2998 1.06495 9.98399 1 9.63679V8.3685L1.00755 8.33302L1.00801 8.33088C1.01662 8.29039 1.0239 8.25639 1.03158 8.22256L1.03335 8.21441C1.08498 7.97615 1.12634 7.75988 1.1654 7.55562C1.24187 7.1558 1.30955 6.80192 1.42824 6.41908C2.01271 4.55907 3.27368 2.99843 4.95063 2.05365L4.9585 2.04922L4.96627 2.04462C6.5278 1.11897 8.36369 0.79405 10.1401 1.12778L10.148 1.12926L10.1559 1.13058C11.8763 1.41906 13.4481 2.29944 14.6074 3.62579C14.6317 3.66237 14.6531 3.70095 14.6715 3.74117L15.166 4.82431L16.0007 3.97694C16.0879 3.88839 16.1676 3.80697 16.2418 3.73103L16.2605 3.7119C16.4736 3.49386 16.6428 3.3208 16.8218 3.15186L16.8234 3.15033C18.2647 1.78308 20.1599 1.02101 22.1287 1.01424C24.0975 1.00746 25.9977 1.75646 27.448 3.11373L27.4524 3.11784C28.5775 4.15533 29.3738 5.51075 29.7383 7.01182L29.742 7.027L29.7463 7.04203C29.832 7.34495 29.8807 7.63875 29.9377 7.98356L29.938 7.98499C29.9571 8.10073 29.9772 8.22223 30 8.35179V9.57398C29.9833 9.64551 29.963 9.73754 29.9489 9.82611L29.9468 9.83895L29.9452 9.85179C29.7663 11.2631 29.3149 12.6244 28.6171 13.8573C28.0084 14.8691 27.3096 15.822 26.5298 16.704L26.5259 16.7084L26.522 16.7129Z" stroke="#1A7A77" stroke-width="2"/>
</svg>
