<svg width="36" height="36" viewBox="0 0 36 36" fill="none" xmlns="http://www.w3.org/2000/svg">
<g clip-path="url(#clip0)">
<path d="M18.0703 36.1974C17.8255 36.1974 17.5873 36.1154 17.3915 35.9638C12.866 32.4602 5.62524 23.8881 5.62524 15.9115C5.62524 15.4755 5.62524 15.0434 5.62524 14.6152C6.1683 5.3657 12.4135 1.16138 18.0703 1.16138C23.7272 1.16138 29.9723 5.3657 30.5154 14.6152C30.5154 15.0512 30.5154 15.4833 30.5154 15.9115C30.5154 23.8881 23.2973 32.4368 18.7491 35.9638C18.5533 36.1154 18.3151 36.1974 18.0703 36.1974ZM18.0703 3.49711C13.3299 3.49711 8.35185 7.00071 7.88799 14.7437C7.88799 15.1291 7.88799 15.5261 7.88799 15.9115C7.88799 22.3231 13.624 29.8208 18.0703 33.5463C22.5166 29.8208 28.2527 22.3231 28.2527 15.9115C28.2527 15.5261 28.2527 15.1291 28.2527 14.7437C27.7888 7.00071 22.8108 3.49711 18.0703 3.49711ZM18.0703 19.8472C16.9515 19.8472 15.8578 19.5048 14.9275 18.8631C13.9973 18.2215 13.2722 17.3095 12.8441 16.2425C12.4159 15.1755 12.3039 14.0014 12.5222 12.8687C12.7404 11.736 13.2792 10.6955 14.0703 9.87888C14.8614 9.06223 15.8694 8.50609 16.9667 8.28078C18.064 8.05546 19.2015 8.1711 20.2351 8.61307C21.2688 9.05503 22.1522 9.80348 22.7738 10.7637C23.3954 11.724 23.7272 12.853 23.7272 14.0079C23.7272 15.5566 23.1312 17.0419 22.0703 18.1369C21.0095 19.232 19.5706 19.8472 18.0703 19.8472ZM18.0703 10.5043C17.399 10.5043 16.7428 10.7098 16.1847 11.0948C15.6265 11.4798 15.1915 12.0269 14.9346 12.6671C14.6777 13.3073 14.6105 14.0118 14.7414 14.6914C14.8724 15.3711 15.1956 15.9953 15.6703 16.4853C16.145 16.9753 16.7498 17.309 17.4082 17.4442C18.0666 17.5794 18.749 17.51 19.3692 17.2448C19.9894 16.9796 20.5195 16.5306 20.8924 15.9544C21.2654 15.3782 21.4644 14.7009 21.4644 14.0079C21.4644 13.0787 21.1068 12.1875 20.4703 11.5305C19.8338 10.8734 18.9705 10.5043 18.0703 10.5043Z" fill="#2B1E1D" fill-opacity="0.8"/>
</g>
<defs>
<clipPath id="clip0">
<rect width="36" height="36" fill="white" transform="translate(0.000244141)"/>
</clipPath>
</defs>
</svg>
