<svg width="31" height="35" viewBox="0 0 31 35" fill="none" xmlns="http://www.w3.org/2000/svg">
<path d="M27.4125 5.48947C24.1112 5.23158 20.9995 3.86842 18.6848 1.58421L17.9638 0.884211C16.7116 -0.294737 14.5486 -0.294737 13.2964 0.884211L12.6133 1.58421C10.2606 3.86842 7.18695 5.23158 3.88559 5.48947C2.17799 5.6 0.849854 7 0.849854 8.65789V12.6737C0.849854 21.7368 5.89676 30.1368 14.0174 34.5947C14.5107 34.8526 15.0799 35 15.6491 35C16.2183 35 16.7875 34.8526 17.2808 34.5947C25.4014 30.1368 30.4483 21.7368 30.4483 12.6737V8.65789C30.4483 7 29.1201 5.63684 27.4125 5.48947ZM28.0956 12.6737C28.0956 20.9263 23.504 28.5526 16.1044 32.5684C15.8388 32.7158 15.4973 32.7158 15.1937 32.5684C7.7941 28.5158 3.20255 20.8895 3.20255 12.6737V8.65789C3.20255 8.17895 3.58201 7.81053 4.03737 7.77368C7.90794 7.47895 11.5129 5.85789 14.245 3.20526L14.966 2.50526C15.1558 2.32105 15.3834 2.24737 15.6111 2.24737C15.8388 2.24737 16.1044 2.35789 16.2562 2.50526L16.9772 3.20526C19.7094 5.85789 23.3522 7.47895 27.1849 7.77368C27.6782 7.81053 28.0197 8.21579 28.0197 8.65789V12.6737H28.0956Z" fill="#2B1E1D" fill-opacity="0.8"/>
<path d="M20.3649 12.8577V10.905C20.3649 8.87872 18.6573 7.22083 16.5702 7.22083H15.4697C13.3827 7.22083 11.6751 8.87872 11.6751 10.905V12.8577C10.1572 13.2998 9.0188 14.6629 9.0188 16.3208V20.9629C9.0188 22.9524 10.6885 24.5735 12.7376 24.5735H19.2644C21.3135 24.5735 22.9832 22.9524 22.9832 20.9629V16.3208C23.0211 14.6998 21.8827 13.3366 20.3649 12.8577ZM15.4697 9.50504H16.5702C17.3671 9.50504 18.0122 10.1314 18.0122 10.905V12.6735H14.0278V10.905C14.0278 10.1314 14.6729 9.50504 15.4697 9.50504ZM20.6305 20.9629C20.6305 21.6998 20.0233 22.2893 19.2644 22.2893H12.7376C11.9786 22.2893 11.3715 21.6998 11.3715 20.9629V16.3208C11.3715 15.584 11.9786 14.9945 12.7376 14.9945H19.2644C20.0233 14.9945 20.6305 15.584 20.6305 16.3208V20.9629V20.9629Z" fill="#2B1E1D" fill-opacity="0.8"/>
<path d="M15.6493 16.2841C14.8903 16.2841 14.2832 16.8735 14.2832 17.6104C14.2832 18.0893 14.5488 18.4946 14.9662 18.7525L14.5109 20.4841C14.4729 20.5946 14.5109 20.742 14.5868 20.8525C14.6627 20.963 14.7765 20.9998 14.9283 20.9998H16.4082C16.56 20.9998 16.6738 20.9262 16.7497 20.8525C16.8256 20.742 16.8636 20.6314 16.8256 20.4841L16.3703 18.7525C16.7877 18.5314 17.0533 18.0893 17.0533 17.6104C17.0154 16.8735 16.4082 16.2841 15.6493 16.2841Z" fill="#2B1E1D" fill-opacity="0.8"/>
</svg>
