<svg width="45" height="36" viewBox="0 0 45 36" fill="none" xmlns="http://www.w3.org/2000/svg">
<g clip-path="url(#clip0)">
<path d="M44.2085 20.0651C44.1949 19.9467 44.1619 19.8313 44.111 19.7235C44.0979 19.6992 44.111 19.6712 44.0885 19.6469L40.7229 14.0469C40.4464 13.5917 40.0566 13.2151 39.5912 12.9535C39.1258 12.6919 38.6005 12.5542 38.066 12.5536H31.3592V11.6371C31.3592 10.3004 30.8258 9.01845 29.8764 8.07326C28.927 7.12808 27.6393 6.59708 26.2967 6.59708H17.4748C16.9877 5.2254 16.158 3.99971 15.0638 3.03544C13.9695 2.07116 12.6467 1.40003 11.22 1.08525C9.79324 0.770465 8.3095 0.822392 6.90849 1.23614C5.50747 1.64988 4.23529 2.41183 3.21175 3.45022C2.1882 4.48862 1.44698 5.76929 1.05788 7.17163C0.66878 8.57397 0.644609 10.0518 0.987643 11.466C1.33068 12.8802 2.02963 14.1843 3.01867 15.2553C4.00771 16.3263 5.2543 17.1291 6.64104 17.588V31.0933C6.64104 31.3904 6.75957 31.6753 6.97055 31.8853C7.18153 32.0953 7.46768 32.2133 7.76605 32.2133H10.8748C11.123 33.2656 11.721 34.2034 12.572 34.8746C13.4229 35.5459 14.4766 35.9111 15.5623 35.9111C16.6479 35.9111 17.7017 35.5459 18.5526 34.8746C19.4035 34.2034 20.0016 33.2656 20.2498 32.2133H30.221H30.2398H32.0004C32.2455 33.2682 32.8423 34.2093 33.6936 34.8832C34.5449 35.557 35.6004 35.9238 36.6879 35.9238C37.7755 35.9238 38.831 35.557 39.6822 34.8832C40.5335 34.2093 41.1303 33.2682 41.3754 32.2133H43.1248C43.4232 32.2133 43.7093 32.0953 43.9203 31.8853C44.1313 31.6753 44.2498 31.3904 44.2498 31.0933V20.2517C44.2416 20.1884 44.2278 20.126 44.2085 20.0651V20.0651ZM2.99979 9.47735C2.99979 8.2221 3.37368 6.99503 4.07418 5.95133C4.77467 4.90763 5.77031 4.09416 6.93519 3.61379C8.10007 3.13343 9.38187 3.00774 10.6185 3.25263C11.8551 3.49752 12.991 4.10198 13.8826 4.98958C14.7742 5.87717 15.3813 7.00804 15.6273 8.23917C15.8733 9.47031 15.747 10.7464 15.2645 11.9061C14.782 13.0658 13.9649 14.057 12.9166 14.7544C11.8682 15.4518 10.6357 15.824 9.3748 15.824C7.68511 15.8206 6.06561 15.1508 4.87082 13.9613C3.67603 12.7718 3.00326 11.1595 2.99979 9.47735V9.47735ZM18.1329 31.1307C18.125 31.8073 17.8484 32.4533 17.3636 32.9275C16.8789 33.4018 16.2253 33.6658 15.5456 33.6618C14.8659 33.6579 14.2155 33.3863 13.7363 32.9065C13.2571 32.4266 12.9881 31.7775 12.9881 31.1008C12.9881 30.4242 13.2571 29.775 13.7363 29.2952C14.2155 28.8153 14.8659 28.5437 15.5456 28.5398C16.2253 28.5358 16.8789 28.7998 17.3636 29.2741C17.8484 29.7484 18.125 30.3943 18.1329 31.0709V31.1008V31.1307ZM29.111 13.6475V13.6755V29.9827H20.2498C20.0001 28.9318 19.4014 27.9956 18.5507 27.3256C17.7 26.6557 16.647 26.2912 15.5623 26.2912C14.4776 26.2912 13.4246 26.6557 12.5739 27.3256C11.7232 27.9956 11.1245 28.9318 10.8748 29.9827H8.89292V18.0267C9.05792 18.036 9.21354 18.0752 9.38042 18.0752C11.6667 18.0713 13.8582 17.1653 15.4748 15.5559C17.0915 13.9464 18.0015 11.7647 18.0054 9.48855C18.0054 9.26828 17.9567 9.06108 17.9398 8.84455H26.2873C27.0332 8.84455 27.7486 9.13955 28.276 9.66465C28.8035 10.1898 29.0998 10.9019 29.0998 11.6445L29.111 13.6475ZM31.361 14.7936H38.0623C38.2087 14.7941 38.3526 14.8324 38.4797 14.9047C38.6069 14.977 38.7131 15.0808 38.7879 15.2061L41.1317 19.1H31.3592L31.361 14.7936ZM36.6748 33.6749C36.1646 33.6749 35.6659 33.5244 35.2416 33.2422C34.8174 32.96 34.4867 32.559 34.2914 32.0898C34.096 31.6205 34.0448 31.1042 34.1442 30.606C34.2436 30.1078 34.4892 29.6501 34.8498 29.2908C35.2104 28.9316 35.67 28.6868 36.1703 28.5875C36.6707 28.4881 37.1894 28.5387 37.6608 28.7329C38.1323 28.927 38.5354 29.2559 38.8191 29.6781C39.1028 30.1002 39.2544 30.5966 39.2548 31.1045C39.2548 31.7864 38.9828 32.4404 38.4987 32.9228C38.0146 33.4051 37.3578 33.6763 36.6729 33.6768L36.6748 33.6749ZM41.9998 29.9864H41.3773C41.1243 28.9359 40.5233 28.0007 39.6712 27.3318C38.8191 26.6628 37.7656 26.299 36.6804 26.299C35.5953 26.299 34.5417 26.6628 33.6896 27.3318C32.8376 28.0007 32.2366 28.9359 31.9835 29.9864H31.3667V21.3437H41.9998V29.9864ZM11.7579 11.3197H9.09167C8.7933 11.3197 8.50715 11.2017 8.29618 10.9917C8.0852 10.7817 7.96667 10.4968 7.96667 10.1997V6.94801C7.96667 6.65097 8.0852 6.3661 8.29618 6.15605C8.50715 5.94601 8.7933 5.82801 9.09167 5.82801C9.39004 5.82801 9.67619 5.94601 9.88717 6.15605C10.0981 6.3661 10.2167 6.65097 10.2167 6.94801V9.09095H11.7485C11.8963 9.09095 12.0426 9.11992 12.1791 9.1762C12.3156 9.23249 12.4396 9.31499 12.544 9.41899C12.6485 9.52299 12.7314 9.64646 12.7879 9.78234C12.8444 9.91823 12.8735 10.0639 12.8735 10.2109C12.8735 10.358 12.8444 10.5037 12.7879 10.6396C12.7314 10.7754 12.6485 10.8989 12.544 11.0029C12.4396 11.1069 12.3156 11.1894 12.1791 11.2457C12.0426 11.302 11.8963 11.3309 11.7485 11.3309L11.7579 11.3197Z" fill="#2B1E1D" fill-opacity="0.8"/>
</g>
<defs>
<clipPath id="clip0">
<rect width="45" height="36" fill="white"/>
</clipPath>
</defs>
</svg>
