<svg width="43" height="44" viewBox="0 0 43 44" fill="none" xmlns="http://www.w3.org/2000/svg">
<path d="M36.0746 6.59409C32.1284 2.51345 26.8198 0.278809 21.2294 0.278809C15.545 0.278809 10.1895 2.61061 6.19632 6.78841C2.20316 10.9176 0.0421506 16.4556 0.089129 22.2851C0.136107 28.1146 2.34409 33.6041 6.38424 37.6847C10.3774 41.7654 15.639 44 21.2294 44C26.9138 44 32.2693 41.6682 36.2625 37.4904C44.4837 28.9405 44.3898 15.0469 36.0746 6.59409ZM34.0075 27.8232C33.7257 28.1146 33.3498 28.2604 33.021 28.2604C32.6452 28.2604 32.2693 28.1146 32.0345 27.8232L21.2294 16.6985L10.5183 27.8232C9.9546 28.4061 9.06201 28.4061 8.49827 27.8232C7.93452 27.2402 7.93452 26.3172 8.49827 25.7343L20.2429 13.5895C20.7596 13.0551 21.7462 13.0551 22.2629 13.5895L34.0075 25.7343C34.5243 26.3172 34.5243 27.2402 34.0075 27.8232Z" fill="#2B1E1D" fill-opacity="0.8"/>
</svg>
