<svg width="28" height="25" viewBox="0 0 28 25" fill="none" xmlns="http://www.w3.org/2000/svg">
<path d="M12.9771 3.35103C12.9898 3.37166 13.0013 3.39338 13.0114 3.41608L13.616 4.76899L14.6444 3.70212C14.7329 3.61029 14.8123 3.52726 14.8855 3.45074C15.0787 3.24878 15.2286 3.09205 15.3885 2.93792L15.3904 2.93604C16.6631 1.70234 18.3311 1.01937 20.0584 1.0133C21.7857 1.00722 23.4579 1.67842 24.7385 2.90299L24.7384 2.90301L24.7438 2.90808C25.7369 3.8438 26.4431 5.06961 26.7667 6.43155L26.771 6.44962L26.7759 6.46752C26.8511 6.73871 26.893 6.99729 26.9442 7.31415C26.9613 7.41937 26.9793 7.53102 27 7.65169V8.75108C26.9853 8.81671 26.9681 8.89874 26.9559 8.97759L26.9535 8.99282L26.9516 9.00811C26.7915 10.2983 26.3879 11.5416 25.7652 12.6669C25.2162 13.599 24.5864 14.4764 23.8838 15.2884L23.8792 15.2938L23.8746 15.2992C22.9479 16.4015 21.9505 17.4371 20.8894 18.399C19.892 19.2982 18.8907 20.1685 17.8659 20.9658L17.8649 20.9666C16.9518 21.6789 16.026 22.354 15.0851 23.0402C14.7326 23.2973 14.3781 23.5558 14.0212 23.8185C13.7451 23.6195 13.4715 23.4242 13.2001 23.2305C12.3475 22.6222 11.517 22.0295 10.7029 21.386C9.43842 20.385 8.22452 19.3235 6.98157 18.2257L6.98128 18.2255C5.4739 16.8952 4.11536 15.3921 2.93179 13.7443L2.93057 13.7427C2.08406 12.5693 1.49506 11.2149 1.20743 9.77481L1.2015 9.7451L1.19377 9.71581C1.1138 9.4124 1.05787 9.12938 1 8.81412V7.67108C1.0008 7.66723 1.00159 7.66346 1.00236 7.65976L1.00286 7.65732C1.01077 7.61926 1.01709 7.58896 1.02374 7.55907L1.02379 7.55908L1.02584 7.54938C1.07552 7.31514 1.11422 7.1081 1.15019 6.91565C1.21846 6.55034 1.27691 6.23763 1.38197 5.89126C1.90061 4.20502 3.01697 2.79794 4.49172 1.94894L4.50137 1.94338L4.51089 1.93762C5.88393 1.10593 7.49455 0.815633 9.05147 1.11452L9.06128 1.1164L9.07112 1.11809C10.5745 1.37568 11.9541 2.1608 12.9771 3.35103Z" stroke="#FAF8F7" stroke-width="2"/>
</svg>
