<svg width="260" height="60" viewBox="0 0 260 60" fill="none" xmlns="http://www.w3.org/2000/svg">
<path d="M7.678 8.864C7.15 8.89333 6.76133 8.952 6.512 9.04C6.27733 9.128 6.116 9.29667 6.028 9.546C5.94 9.79533 5.896 10.1987 5.896 10.756V21.932C5.896 22.4013 5.93267 22.746 6.006 22.966C6.07933 23.1713 6.204 23.3107 6.38 23.384C6.57067 23.4573 6.87133 23.494 7.282 23.494H8.36C9.35733 23.494 10.2153 23.0467 10.934 22.152C11.6673 21.2573 12.144 20.0693 12.364 18.588H12.87C12.826 19.0867 12.804 19.732 12.804 20.524C12.804 21.932 12.8553 23.0907 12.958 24C11.9607 23.956 10.2813 23.934 7.92 23.934C4.72267 23.934 2.332 23.956 0.748 24V23.56C1.232 23.5307 1.584 23.472 1.804 23.384C2.03867 23.296 2.19267 23.1273 2.266 22.878C2.354 22.6287 2.398 22.2253 2.398 21.668V10.756C2.398 10.1987 2.354 9.79533 2.266 9.546C2.19267 9.29667 2.03867 9.128 1.804 9.04C1.584 8.952 1.232 8.89333 0.748 8.864V8.424C1.496 8.468 2.65467 8.49 4.224 8.49C5.72 8.49 6.87133 8.468 7.678 8.424V8.864ZM16.8812 24.154C15.9426 24.154 15.2386 23.912 14.7692 23.428C14.3146 22.944 14.0872 22.306 14.0872 21.514C14.0872 20.854 14.2559 20.3113 14.5932 19.886C14.9452 19.446 15.3632 19.1087 15.8472 18.874C16.3459 18.6393 16.9766 18.39 17.7392 18.126C18.5459 17.8473 19.1326 17.598 19.4992 17.378C19.8806 17.1433 20.0712 16.828 20.0712 16.432V14.716C20.0712 14.1 19.9246 13.6233 19.6312 13.286C19.3526 12.934 18.9126 12.758 18.3112 12.758C17.6072 12.758 17.0719 12.934 16.7052 13.286C17.1159 13.4327 17.4312 13.6527 17.6512 13.946C17.8859 14.2393 18.0032 14.584 18.0032 14.98C18.0032 15.4787 17.8346 15.8747 17.4972 16.168C17.1599 16.4613 16.7492 16.608 16.2652 16.608C15.7519 16.608 15.3559 16.4467 15.0772 16.124C14.7986 15.8013 14.6592 15.398 14.6592 14.914C14.6592 14.5033 14.7546 14.1587 14.9452 13.88C15.1506 13.5867 15.4586 13.3153 15.8692 13.066C16.2652 12.8313 16.7492 12.648 17.3212 12.516C17.9079 12.384 18.5459 12.318 19.2352 12.318C19.9539 12.318 20.5772 12.3913 21.1052 12.538C21.6332 12.6847 22.0732 12.934 22.4252 13.286C22.7479 13.6087 22.9606 14.0047 23.0632 14.474C23.1806 14.9433 23.2392 15.5813 23.2392 16.388V22.372C23.2392 22.724 23.2686 22.9733 23.3272 23.12C23.4006 23.2667 23.5326 23.34 23.7232 23.34C23.9432 23.34 24.2072 23.2153 24.5152 22.966L24.7352 23.34C24.0752 23.8827 23.2686 24.154 22.3152 24.154C21.5086 24.154 20.9439 23.9927 20.6212 23.67C20.2986 23.3473 20.1299 22.9147 20.1152 22.372C19.3819 23.56 18.3039 24.154 16.8812 24.154ZM18.5752 22.746C19.1472 22.746 19.6459 22.4453 20.0712 21.844V17.334C19.8952 17.6273 19.5212 17.95 18.9492 18.302C18.3772 18.6687 17.9446 19.0353 17.6512 19.402C17.3579 19.7687 17.2112 20.2967 17.2112 20.986C17.2112 21.5873 17.3359 22.0347 17.5852 22.328C17.8346 22.6067 18.1646 22.746 18.5752 22.746ZM35.7593 17.708V21.536C35.7593 22.1227 35.8179 22.5553 35.9353 22.834C36.0673 23.098 36.2873 23.274 36.5953 23.362C36.9179 23.45 37.4239 23.5013 38.1133 23.516V24C36.3093 23.956 34.9673 23.934 34.0873 23.934C33.3539 23.934 32.4299 23.9487 31.3153 23.978L30.6113 24V23.56C31.0953 23.5307 31.4473 23.472 31.6673 23.384C31.9019 23.296 32.0559 23.1273 32.1293 22.878C32.2173 22.6287 32.2613 22.2253 32.2613 21.668V10.756C32.2613 10.1987 32.2173 9.79533 32.1293 9.546C32.0559 9.29667 31.9019 9.128 31.6673 9.04C31.4473 8.952 31.0953 8.89333 30.6113 8.864V8.424C31.3593 8.468 32.4739 8.49 33.9553 8.49L36.3973 8.468C36.6906 8.45333 37.0279 8.446 37.4093 8.446C39.3893 8.446 40.8999 8.842 41.9413 9.634C42.9826 10.4113 43.5033 11.46 43.5033 12.78C43.5033 13.5867 43.2979 14.364 42.8873 15.112C42.4766 15.8453 41.7799 16.4613 40.7973 16.96C39.8293 17.4587 38.5386 17.708 36.9253 17.708H35.7593ZM37.1233 8.864C36.7273 8.864 36.4339 8.91533 36.2433 9.018C36.0673 9.12067 35.9426 9.304 35.8693 9.568C35.7959 9.832 35.7593 10.228 35.7593 10.756V17.268H36.7053C37.8933 17.268 38.7146 16.8867 39.1693 16.124C39.6239 15.3613 39.8513 14.3273 39.8513 13.022C39.8513 11.5993 39.6386 10.5507 39.2133 9.876C38.8026 9.20133 38.1059 8.864 37.1233 8.864ZM50.6093 22.504C51.8119 22.504 52.7799 21.9173 53.5133 20.744L53.9093 20.876C53.6159 21.8293 53.0879 22.6433 52.3253 23.318C51.5773 23.978 50.6386 24.308 49.5093 24.308C47.9546 24.308 46.7153 23.8167 45.7913 22.834C44.8819 21.8367 44.4273 20.37 44.4273 18.434C44.4273 16.454 44.9186 14.9433 45.9013 13.902C46.8839 12.846 48.1893 12.318 49.8173 12.318C52.5746 12.318 53.9533 13.946 53.9533 17.202H47.7713C47.7566 17.422 47.7493 17.7667 47.7493 18.236C47.7493 19.204 47.8813 20.0107 48.1453 20.656C48.4239 21.3013 48.7759 21.7707 49.2013 22.064C49.6413 22.3573 50.1106 22.504 50.6093 22.504ZM49.6853 12.78C49.1573 12.78 48.7173 13.11 48.3653 13.77C48.0279 14.4153 47.8153 15.42 47.7273 16.784H51.1813C51.2106 15.6253 51.0933 14.672 50.8293 13.924C50.5799 13.1613 50.1986 12.78 49.6853 12.78ZM59.6932 12.626H62.2892V13.066H59.6932V21.954C59.6932 22.394 59.7666 22.7093 59.9132 22.9C60.0746 23.076 60.3239 23.164 60.6612 23.164C61.2919 23.164 61.7906 22.724 62.1572 21.844L62.5312 22.042C61.9739 23.5527 60.9692 24.308 59.5172 24.308C58.5492 24.308 57.8159 24.0587 57.3172 23.56C57.0092 23.252 56.7966 22.8707 56.6792 22.416C56.5766 21.9467 56.5252 21.3087 56.5252 20.502V13.066H54.6772V12.626H56.5252V9.722C57.7426 9.722 58.7986 9.48733 59.6932 9.018V12.626ZM65.8216 6.95C66.4376 6.95 66.9216 7.104 67.2736 7.412C67.6403 7.70533 67.8236 8.116 67.8236 8.644C67.8236 9.172 67.6403 9.59 67.2736 9.898C66.9216 10.1913 66.4376 10.338 65.8216 10.338C65.2056 10.338 64.7143 10.1913 64.3476 9.898C63.9956 9.59 63.8196 9.172 63.8196 8.644C63.8196 8.116 63.9956 7.70533 64.3476 7.412C64.7143 7.104 65.2056 6.95 65.8216 6.95ZM67.5376 21.954C67.5376 22.5553 67.6403 22.9733 67.8456 23.208C68.0656 23.428 68.4323 23.538 68.9456 23.538V24C67.4789 23.9413 66.5036 23.912 66.0196 23.912C65.5649 23.912 64.5456 23.9413 62.9616 24V23.538C63.4896 23.538 63.8563 23.428 64.0616 23.208C64.2669 22.9733 64.3696 22.5553 64.3696 21.954V15.024C64.3696 14.3493 64.2669 13.858 64.0616 13.55C63.8563 13.242 63.4896 13.088 62.9616 13.088V12.626C63.4309 12.67 63.8856 12.692 64.3256 12.692C65.6309 12.692 66.7016 12.5893 67.5376 12.384V21.954ZM74.367 12.626H76.963V13.066H74.367V21.954C74.367 22.394 74.4404 22.7093 74.587 22.9C74.7484 23.076 74.9977 23.164 75.335 23.164C75.9657 23.164 76.4644 22.724 76.831 21.844L77.205 22.042C76.6477 23.5527 75.643 24.308 74.191 24.308C73.223 24.308 72.4897 24.0587 71.991 23.56C71.683 23.252 71.4704 22.8707 71.353 22.416C71.2504 21.9467 71.199 21.3087 71.199 20.502V13.066H69.351V12.626H71.199V9.722C72.4164 9.722 73.4724 9.48733 74.367 9.018V12.626ZM84.0175 22.504C85.2202 22.504 86.1882 21.9173 86.9215 20.744L87.3175 20.876C87.0242 21.8293 86.4962 22.6433 85.7335 23.318C84.9855 23.978 84.0468 24.308 82.9175 24.308C81.3628 24.308 80.1235 23.8167 79.1995 22.834C78.2902 21.8367 77.8355 20.37 77.8355 18.434C77.8355 16.454 78.3268 14.9433 79.3095 13.902C80.2922 12.846 81.5975 12.318 83.2255 12.318C85.9828 12.318 87.3615 13.946 87.3615 17.202H81.1795C81.1648 17.422 81.1575 17.7667 81.1575 18.236C81.1575 19.204 81.2895 20.0107 81.5535 20.656C81.8322 21.3013 82.1842 21.7707 82.6095 22.064C83.0495 22.3573 83.5188 22.504 84.0175 22.504ZM83.0935 12.78C82.5655 12.78 82.1255 13.11 81.7735 13.77C81.4362 14.4153 81.2235 15.42 81.1355 16.784H84.5895C84.6188 15.6253 84.5015 14.672 84.2375 13.924C83.9882 13.1613 83.6068 12.78 83.0935 12.78ZM105.76 8.424C105.658 9.67067 105.606 10.7853 105.606 11.768C105.606 12.4573 105.628 13.0147 105.672 13.44H105.166C104.873 11.7827 104.433 10.6167 103.846 9.942C103.26 9.26733 102.438 8.93 101.382 8.93H100.656C100.202 8.93 99.8715 8.96667 99.6662 9.04C99.4609 9.11333 99.3215 9.26 99.2482 9.48C99.1749 9.68533 99.1382 10.0227 99.1382 10.492V16.036H99.9082C100.686 16.036 101.272 15.75 101.668 15.178C102.079 14.606 102.365 13.924 102.526 13.132H103.032C102.988 13.748 102.966 14.4373 102.966 15.2V16.256C102.966 17.004 103.01 18.0453 103.098 19.38H102.592C102.284 17.444 101.39 16.476 99.9082 16.476H99.1382V21.536C99.1382 22.1227 99.1969 22.5553 99.3142 22.834C99.4462 23.098 99.6662 23.274 99.9742 23.362C100.297 23.45 100.803 23.5013 101.492 23.516V24C99.6882 23.956 98.3462 23.934 97.4662 23.934C96.7329 23.934 95.8089 23.9487 94.6942 23.978L93.9902 24V23.56C94.4742 23.5307 94.8262 23.472 95.0462 23.384C95.2809 23.296 95.4349 23.1273 95.5082 22.878C95.5962 22.6287 95.6402 22.2253 95.6402 21.668V10.756C95.6402 10.1987 95.5962 9.79533 95.5082 9.546C95.4349 9.29667 95.2809 9.128 95.0462 9.04C94.8262 8.952 94.4742 8.89333 93.9902 8.864V8.424C95.5742 8.468 97.9649 8.49 101.162 8.49C103.318 8.49 104.851 8.468 105.76 8.424ZM109.328 24.154C108.39 24.154 107.686 23.912 107.216 23.428C106.762 22.944 106.534 22.306 106.534 21.514C106.534 20.854 106.703 20.3113 107.04 19.886C107.392 19.446 107.81 19.1087 108.294 18.874C108.793 18.6393 109.424 18.39 110.186 18.126C110.993 17.8473 111.58 17.598 111.946 17.378C112.328 17.1433 112.518 16.828 112.518 16.432V14.716C112.518 14.1 112.372 13.6233 112.078 13.286C111.8 12.934 111.36 12.758 110.758 12.758C110.054 12.758 109.519 12.934 109.152 13.286C109.563 13.4327 109.878 13.6527 110.098 13.946C110.333 14.2393 110.45 14.584 110.45 14.98C110.45 15.4787 110.282 15.8747 109.944 16.168C109.607 16.4613 109.196 16.608 108.712 16.608C108.199 16.608 107.803 16.4467 107.524 16.124C107.246 15.8013 107.106 15.398 107.106 14.914C107.106 14.5033 107.202 14.1587 107.392 13.88C107.598 13.5867 107.906 13.3153 108.316 13.066C108.712 12.8313 109.196 12.648 109.768 12.516C110.355 12.384 110.993 12.318 111.682 12.318C112.401 12.318 113.024 12.3913 113.552 12.538C114.08 12.6847 114.52 12.934 114.872 13.286C115.195 13.6087 115.408 14.0047 115.51 14.474C115.628 14.9433 115.686 15.5813 115.686 16.388V22.372C115.686 22.724 115.716 22.9733 115.774 23.12C115.848 23.2667 115.98 23.34 116.17 23.34C116.39 23.34 116.654 23.2153 116.962 22.966L117.182 23.34C116.522 23.8827 115.716 24.154 114.762 24.154C113.956 24.154 113.391 23.9927 113.068 23.67C112.746 23.3473 112.577 22.9147 112.562 22.372C111.829 23.56 110.751 24.154 109.328 24.154ZM111.022 22.746C111.594 22.746 112.093 22.4453 112.518 21.844V17.334C112.342 17.6273 111.968 17.95 111.396 18.302C110.824 18.6687 110.392 19.0353 110.098 19.402C109.805 19.7687 109.658 20.2967 109.658 20.986C109.658 21.5873 109.783 22.0347 110.032 22.328C110.282 22.6067 110.612 22.746 111.022 22.746ZM125.357 12.318C126.545 12.318 127.506 12.8093 128.239 13.792C128.973 14.76 129.339 16.168 129.339 18.016C129.339 20.172 128.87 21.7633 127.931 22.79C126.993 23.802 125.783 24.308 124.301 24.308C123.289 24.308 122.468 24.0513 121.837 23.538C121.309 23.494 120.781 23.5527 120.253 23.714C119.725 23.8753 119.307 24.088 118.999 24.352L118.669 24.154C118.772 23.7873 118.823 23.3767 118.823 22.922V9.436C118.823 8.76133 118.713 8.27 118.493 7.962C118.288 7.654 117.929 7.5 117.415 7.5V7.038C117.87 7.082 118.325 7.104 118.779 7.104C120.055 7.104 121.126 7.00133 121.991 6.796V14.408C122.299 13.7333 122.747 13.22 123.333 12.868C123.92 12.5013 124.595 12.318 125.357 12.318ZM123.619 23.846C124.426 23.846 125.027 23.3913 125.423 22.482C125.819 21.5727 126.017 20.1867 126.017 18.324C126.017 16.52 125.849 15.2293 125.511 14.452C125.174 13.66 124.69 13.264 124.059 13.264C123.59 13.264 123.157 13.44 122.761 13.792C122.38 14.1293 122.123 14.5913 121.991 15.178V23.252C122.475 23.648 123.018 23.846 123.619 23.846ZM138.27 12.318C138.93 12.318 139.428 12.516 139.766 12.912C140.103 13.308 140.272 13.7847 140.272 14.342C140.272 14.8847 140.11 15.332 139.788 15.684C139.48 16.0213 139.069 16.19 138.556 16.19C138.057 16.19 137.661 16.0653 137.368 15.816C137.074 15.552 136.928 15.2073 136.928 14.782C136.928 14.078 137.25 13.506 137.896 13.066C137.837 13.0513 137.749 13.044 137.632 13.044C137.485 13.044 137.368 13.0587 137.28 13.088C136.722 13.176 136.246 13.5133 135.85 14.1C135.468 14.6867 135.278 15.288 135.278 15.904V21.734C135.278 22.4087 135.439 22.878 135.762 23.142C136.099 23.406 136.627 23.538 137.346 23.538V24C137.14 24 136.972 23.9927 136.84 23.978C135.344 23.934 134.346 23.912 133.848 23.912C133.452 23.912 132.55 23.934 131.142 23.978C131.024 23.9927 130.878 24 130.702 24V23.538C131.23 23.538 131.596 23.428 131.802 23.208C132.007 22.9733 132.11 22.5553 132.11 21.954V15.024C132.11 14.3493 132.007 13.858 131.802 13.55C131.596 13.242 131.23 13.088 130.702 13.088V12.626C131.171 12.67 131.626 12.692 132.066 12.692C133.371 12.692 134.442 12.5893 135.278 12.384V14.43C135.556 13.7993 135.96 13.2933 136.488 12.912C137.016 12.516 137.61 12.318 138.27 12.318ZM143.831 6.95C144.447 6.95 144.931 7.104 145.283 7.412C145.65 7.70533 145.833 8.116 145.833 8.644C145.833 9.172 145.65 9.59 145.283 9.898C144.931 10.1913 144.447 10.338 143.831 10.338C143.215 10.338 142.724 10.1913 142.357 9.898C142.005 9.59 141.829 9.172 141.829 8.644C141.829 8.116 142.005 7.70533 142.357 7.412C142.724 7.104 143.215 6.95 143.831 6.95ZM145.547 21.954C145.547 22.5553 145.65 22.9733 145.855 23.208C146.075 23.428 146.442 23.538 146.955 23.538V24C145.489 23.9413 144.513 23.912 144.029 23.912C143.575 23.912 142.555 23.9413 140.971 24V23.538C141.499 23.538 141.866 23.428 142.071 23.208C142.277 22.9733 142.379 22.5553 142.379 21.954V15.024C142.379 14.3493 142.277 13.858 142.071 13.55C141.866 13.242 141.499 13.088 140.971 13.088V12.626C141.441 12.67 141.895 12.692 142.335 12.692C143.641 12.692 144.711 12.5893 145.547 12.384V21.954ZM158.713 26.024C158.713 26.596 158.808 26.9847 158.999 27.19C159.204 27.41 159.549 27.52 160.033 27.52V27.982C158.625 27.9233 157.701 27.894 157.261 27.894C156.821 27.894 155.787 27.916 154.159 27.96L153.565 27.982V27.52C154.239 27.52 154.738 27.3953 155.061 27.146C155.383 26.8967 155.545 26.4493 155.545 25.804V22.306C155.295 22.966 154.929 23.4647 154.445 23.802C153.961 24.1393 153.381 24.308 152.707 24.308C151.372 24.308 150.287 23.802 149.451 22.79C148.615 21.778 148.197 20.2673 148.197 18.258C148.197 16.322 148.629 14.848 149.495 13.836C150.375 12.824 151.548 12.318 153.015 12.318C153.631 12.318 154.151 12.3913 154.577 12.538C155.017 12.67 155.405 12.8973 155.743 13.22C156.256 13.2347 156.777 13.154 157.305 12.978C157.833 12.7873 158.243 12.5527 158.537 12.274L158.867 12.45C158.764 12.8167 158.713 13.2347 158.713 13.704V26.024ZM153.631 23.362C154.071 23.362 154.467 23.2007 154.819 22.878C155.185 22.5407 155.427 22.0933 155.545 21.536V13.44C155.119 13 154.555 12.78 153.851 12.78C152.296 12.78 151.519 14.6207 151.519 18.302C151.519 20.106 151.702 21.404 152.069 22.196C152.435 22.9733 152.956 23.362 153.631 23.362ZM171.736 21.602C171.736 22.2767 171.839 22.768 172.044 23.076C172.264 23.384 172.631 23.538 173.144 23.538V24C172.689 23.956 172.235 23.934 171.78 23.934C170.504 23.934 169.433 24.0367 168.568 24.242V22.262C167.893 23.626 166.713 24.308 165.026 24.308C163.926 24.308 163.127 24.022 162.628 23.45C162.393 23.1713 162.217 22.812 162.1 22.372C161.997 21.9173 161.946 21.3233 161.946 20.59V15.024C161.946 14.3493 161.836 13.858 161.616 13.55C161.411 13.242 161.051 13.088 160.538 13.088V12.626C160.993 12.67 161.447 12.692 161.902 12.692C163.178 12.692 164.249 12.5893 165.114 12.384V21.492C165.114 22.108 165.202 22.57 165.378 22.878C165.569 23.186 165.921 23.34 166.434 23.34C167.021 23.34 167.519 23.098 167.93 22.614C168.355 22.1153 168.568 21.5067 168.568 20.788V15.024C168.568 14.3493 168.458 13.858 168.238 13.55C168.033 13.242 167.673 13.088 167.16 13.088V12.626C167.629 12.67 168.084 12.692 168.524 12.692C169.8 12.692 170.871 12.5893 171.736 12.384V21.602ZM180.59 22.504C181.792 22.504 182.76 21.9173 183.494 20.744L183.89 20.876C183.596 21.8293 183.068 22.6433 182.306 23.318C181.558 23.978 180.619 24.308 179.49 24.308C177.935 24.308 176.696 23.8167 175.772 22.834C174.862 21.8367 174.408 20.37 174.408 18.434C174.408 16.454 174.899 14.9433 175.882 13.902C176.864 12.846 178.17 12.318 179.798 12.318C182.555 12.318 183.934 13.946 183.934 17.202H177.752C177.737 17.422 177.73 17.7667 177.73 18.236C177.73 19.204 177.862 20.0107 178.126 20.656C178.404 21.3013 178.756 21.7707 179.182 22.064C179.622 22.3573 180.091 22.504 180.59 22.504ZM179.666 12.78C179.138 12.78 178.698 13.11 178.346 13.77C178.008 14.4153 177.796 15.42 177.708 16.784H181.162C181.191 15.6253 181.074 14.672 180.81 13.924C180.56 13.1613 180.179 12.78 179.666 12.78ZM196.062 8.138C196.825 8.138 197.434 8.21133 197.888 8.358C198.343 8.50467 198.805 8.71733 199.274 8.996C199.436 9.084 199.575 9.15733 199.692 9.216C199.824 9.27467 199.934 9.304 200.022 9.304C200.154 9.304 200.257 9.23067 200.33 9.084C200.404 8.92267 200.462 8.67333 200.506 8.336H201.012C200.939 9.31867 200.902 10.9907 200.902 13.352H200.396C200.338 12.56 200.154 11.8047 199.846 11.086C199.553 10.3673 199.128 9.788 198.57 9.348C198.028 8.89333 197.39 8.666 196.656 8.666C195.938 8.666 195.351 8.87133 194.896 9.282C194.456 9.678 194.236 10.2207 194.236 10.91C194.236 11.4233 194.346 11.8707 194.566 12.252C194.786 12.6333 195.094 12.9853 195.49 13.308C195.886 13.616 196.495 14.0413 197.316 14.584L198.02 15.068C198.886 15.64 199.568 16.1387 200.066 16.564C200.565 16.9893 200.968 17.488 201.276 18.06C201.599 18.6173 201.76 19.27 201.76 20.018C201.76 20.9567 201.518 21.7487 201.034 22.394C200.55 23.0247 199.89 23.5013 199.054 23.824C198.233 24.1467 197.316 24.308 196.304 24.308C195.483 24.308 194.801 24.2347 194.258 24.088C193.716 23.9413 193.217 23.7433 192.762 23.494C192.44 23.2887 192.19 23.186 192.014 23.186C191.882 23.186 191.78 23.2667 191.706 23.428C191.633 23.5747 191.574 23.8167 191.53 24.154H191.024C191.083 23.23 191.112 21.25 191.112 18.214H191.618C191.721 19.8567 192.088 21.1913 192.718 22.218C193.349 23.23 194.317 23.736 195.622 23.736C196.414 23.736 197.067 23.5233 197.58 23.098C198.094 22.6727 198.35 22.064 198.35 21.272C198.35 20.4507 198.086 19.7467 197.558 19.16C197.03 18.5733 196.194 17.9133 195.05 17.18C194.17 16.608 193.466 16.1093 192.938 15.684C192.41 15.2587 191.978 14.76 191.64 14.188C191.303 13.6013 191.134 12.9267 191.134 12.164C191.134 11.284 191.354 10.5433 191.794 9.942C192.249 9.326 192.85 8.87133 193.598 8.578C194.346 8.28467 195.168 8.138 196.062 8.138ZM214.146 21.602C214.146 22.2767 214.249 22.768 214.454 23.076C214.674 23.384 215.041 23.538 215.554 23.538V24C215.099 23.956 214.645 23.934 214.19 23.934C212.914 23.934 211.843 24.0367 210.978 24.242V22.262C210.303 23.626 209.123 24.308 207.436 24.308C206.336 24.308 205.537 24.022 205.038 23.45C204.803 23.1713 204.627 22.812 204.51 22.372C204.407 21.9173 204.356 21.3233 204.356 20.59V15.024C204.356 14.3493 204.246 13.858 204.026 13.55C203.821 13.242 203.461 13.088 202.948 13.088V12.626C203.403 12.67 203.857 12.692 204.312 12.692C205.588 12.692 206.659 12.5893 207.524 12.384V21.492C207.524 22.108 207.612 22.57 207.788 22.878C207.979 23.186 208.331 23.34 208.844 23.34C209.431 23.34 209.929 23.098 210.34 22.614C210.765 22.1153 210.978 21.5067 210.978 20.788V15.024C210.978 14.3493 210.868 13.858 210.648 13.55C210.443 13.242 210.083 13.088 209.57 13.088V12.626C210.039 12.67 210.494 12.692 210.934 12.692C212.21 12.692 213.281 12.5893 214.146 12.384V21.602ZM222.252 12.318C222.795 12.318 223.308 12.3767 223.792 12.494C224.276 12.6113 224.679 12.7727 225.002 12.978C225.383 13.2127 225.677 13.5133 225.882 13.88C226.102 14.232 226.212 14.6207 226.212 15.046C226.212 15.5593 226.051 15.9847 225.728 16.322C225.405 16.6447 224.987 16.806 224.474 16.806C223.961 16.806 223.55 16.6593 223.242 16.366C222.934 16.0727 222.78 15.6767 222.78 15.178C222.78 14.738 222.919 14.3567 223.198 14.034C223.477 13.7113 223.821 13.4913 224.232 13.374C224.115 13.2127 223.931 13.088 223.682 13C223.447 12.8973 223.191 12.846 222.912 12.846C222.032 12.846 221.343 13.33 220.844 14.298C220.36 15.2513 220.118 16.5053 220.118 18.06C220.118 19.6293 220.397 20.7587 220.954 21.448C221.511 22.1373 222.208 22.482 223.044 22.482C223.543 22.482 224.041 22.35 224.54 22.086C225.053 21.822 225.515 21.36 225.926 20.7L226.3 20.832C226.007 21.7853 225.493 22.6067 224.76 23.296C224.027 23.9707 223.081 24.308 221.922 24.308C220.411 24.308 219.179 23.8093 218.226 22.812C217.273 21.8147 216.796 20.3333 216.796 18.368C216.796 17.0773 217.031 15.9773 217.5 15.068C217.969 14.1587 218.615 13.4767 219.436 13.022C220.257 12.5527 221.196 12.318 222.252 12.318ZM235.014 12.318C235.674 12.318 236.173 12.516 236.51 12.912C236.847 13.308 237.016 13.7847 237.016 14.342C237.016 14.8847 236.855 15.332 236.532 15.684C236.224 16.0213 235.813 16.19 235.3 16.19C234.801 16.19 234.405 16.0653 234.112 15.816C233.819 15.552 233.672 15.2073 233.672 14.782C233.672 14.078 233.995 13.506 234.64 13.066C234.581 13.0513 234.493 13.044 234.376 13.044C234.229 13.044 234.112 13.0587 234.024 13.088C233.467 13.176 232.99 13.5133 232.594 14.1C232.213 14.6867 232.022 15.288 232.022 15.904V21.734C232.022 22.4087 232.183 22.878 232.506 23.142C232.843 23.406 233.371 23.538 234.09 23.538V24C233.885 24 233.716 23.9927 233.584 23.978C232.088 23.934 231.091 23.912 230.592 23.912C230.196 23.912 229.294 23.934 227.886 23.978C227.769 23.9927 227.622 24 227.446 24V23.538C227.974 23.538 228.341 23.428 228.546 23.208C228.751 22.9733 228.854 22.5553 228.854 21.954V15.024C228.854 14.3493 228.751 13.858 228.546 13.55C228.341 13.242 227.974 13.088 227.446 13.088V12.626C227.915 12.67 228.37 12.692 228.81 12.692C230.115 12.692 231.186 12.5893 232.022 12.384V14.43C232.301 13.7993 232.704 13.2933 233.232 12.912C233.76 12.516 234.354 12.318 235.014 12.318ZM243.883 22.504C245.085 22.504 246.053 21.9173 246.787 20.744L247.183 20.876C246.889 21.8293 246.361 22.6433 245.599 23.318C244.851 23.978 243.912 24.308 242.783 24.308C241.228 24.308 239.989 23.8167 239.065 22.834C238.155 21.8367 237.701 20.37 237.701 18.434C237.701 16.454 238.192 14.9433 239.175 13.902C240.157 12.846 241.463 12.318 243.091 12.318C245.848 12.318 247.227 13.946 247.227 17.202H241.045C241.03 17.422 241.023 17.7667 241.023 18.236C241.023 19.204 241.155 20.0107 241.419 20.656C241.697 21.3013 242.049 21.7707 242.475 22.064C242.915 22.3573 243.384 22.504 243.883 22.504ZM242.959 12.78C242.431 12.78 241.991 13.11 241.639 13.77C241.301 14.4153 241.089 15.42 241.001 16.784H244.455C244.484 15.6253 244.367 14.672 244.103 13.924C243.853 13.1613 243.472 12.78 242.959 12.78ZM245.357 6.026C245.621 6.21667 245.753 6.49533 245.753 6.862C245.753 7.17 245.643 7.47067 245.423 7.764C245.261 7.95467 245.056 8.15267 244.807 8.358C244.572 8.54867 244.315 8.74667 244.037 8.952C243.157 9.568 242.379 10.1913 241.705 10.822L241.463 10.624C241.859 9.90533 242.269 9.00333 242.695 7.918C242.885 7.46333 243.032 7.126 243.135 6.906C243.252 6.67133 243.391 6.45867 243.553 6.268C243.831 5.916 244.176 5.74 244.587 5.74C244.895 5.74 245.151 5.83533 245.357 6.026ZM254.969 22.504C256.171 22.504 257.139 21.9173 257.873 20.744L258.269 20.876C257.975 21.8293 257.447 22.6433 256.685 23.318C255.937 23.978 254.998 24.308 253.869 24.308C252.314 24.308 251.075 23.8167 250.151 22.834C249.241 21.8367 248.787 20.37 248.787 18.434C248.787 16.454 249.278 14.9433 250.261 13.902C251.243 12.846 252.549 12.318 254.177 12.318C256.934 12.318 258.313 13.946 258.313 17.202H252.131C252.116 17.422 252.109 17.7667 252.109 18.236C252.109 19.204 252.241 20.0107 252.505 20.656C252.783 21.3013 253.135 21.7707 253.561 22.064C254.001 22.3573 254.47 22.504 254.969 22.504ZM254.045 12.78C253.517 12.78 253.077 13.11 252.725 13.77C252.387 14.4153 252.175 15.42 252.087 16.784H255.541C255.57 15.6253 255.453 14.672 255.189 13.924C254.939 13.1613 254.558 12.78 254.045 12.78Z" fill="#2B1E1D"/>
<path d="M58.2903 43.07C58.8903 43.07 59.4103 43.145 59.8503 43.295C60.2903 43.435 60.6703 43.635 60.9903 43.895C61.6203 44.405 62.0303 45.12 62.2203 46.04L60.3303 46.385C60.1703 45.875 59.9203 45.465 59.5803 45.155C59.2503 44.835 58.8353 44.675 58.3353 44.675C57.6553 44.675 57.1053 44.96 56.6853 45.53C56.2353 46.15 56.0103 47.01 56.0103 48.11C56.0103 49.2 56.2103 50.055 56.6103 50.675C57.0103 51.285 57.5553 51.59 58.2453 51.59C58.9353 51.59 59.4553 51.425 59.8053 51.095C60.1553 50.755 60.3303 50.32 60.3303 49.79H62.2353C62.2353 50.88 61.8853 51.725 61.1853 52.325C60.4953 52.915 59.5453 53.21 58.3353 53.21C57.0453 53.21 56.0203 52.76 55.2603 51.86C54.4903 50.94 54.1053 49.69 54.1053 48.11C54.1053 46.51 54.5003 45.26 55.2903 44.36C56.0503 43.5 57.0503 43.07 58.2903 43.07ZM66.0722 46.895C66.5722 45.975 67.3022 45.515 68.2622 45.515C69.2222 45.515 69.9272 45.81 70.3772 46.4C70.8372 46.99 71.0672 47.77 71.0672 48.74V53H69.2972V48.74C69.2972 48.2 69.1672 47.795 68.9072 47.525C68.6472 47.245 68.2822 47.105 67.8122 47.105C67.3422 47.105 66.9372 47.315 66.5972 47.735C66.2672 48.155 66.0922 48.785 66.0722 49.625V53H64.3022V42.71H66.0722V46.895ZM76.5129 45.515C77.0029 45.515 77.4629 45.595 77.8929 45.755C78.3229 45.905 78.6929 46.14 79.0029 46.46C79.6929 47.16 80.0379 48.13 80.0379 49.37C80.0379 50.59 79.6929 51.55 79.0029 52.25C78.3829 52.89 77.5529 53.21 76.5129 53.21C75.4729 53.21 74.6329 52.89 73.9929 52.25C73.3029 51.56 72.9579 50.6 72.9579 49.37C72.9579 48.12 73.3029 47.15 73.9929 46.46C74.6229 45.83 75.4629 45.515 76.5129 45.515ZM78.2679 49.355C78.2679 48.585 78.1179 48.01 77.8179 47.63C77.5179 47.24 77.0979 47.045 76.5579 47.045C76.0279 47.045 75.5929 47.24 75.2529 47.63C74.9129 48.01 74.7429 48.585 74.7429 49.355C74.7429 50.125 74.8929 50.705 75.1929 51.095C75.5029 51.475 75.9229 51.665 76.4529 51.665C76.9829 51.665 77.4179 51.475 77.7579 51.095C78.0979 50.705 78.2679 50.125 78.2679 49.355ZM84.919 45.515C85.379 45.515 85.789 45.595 86.149 45.755C86.519 45.905 86.829 46.105 87.079 46.355C87.579 46.835 87.874 47.44 87.964 48.17L86.179 48.215C86.099 47.895 85.949 47.63 85.729 47.42C85.519 47.21 85.274 47.105 84.994 47.105C84.714 47.105 84.474 47.15 84.274 47.24C84.074 47.32 83.899 47.45 83.749 47.63C83.409 48.05 83.239 48.63 83.239 49.37C83.239 50.11 83.399 50.67 83.719 51.05C84.039 51.42 84.424 51.605 84.874 51.605C85.334 51.605 85.664 51.5 85.864 51.29C86.074 51.07 86.179 50.775 86.179 50.405H87.964C87.964 51.205 87.699 51.87 87.169 52.4C86.629 52.94 85.874 53.21 84.904 53.21C83.944 53.21 83.139 52.86 82.489 52.16C81.799 51.41 81.454 50.475 81.454 49.355C81.454 48.175 81.799 47.23 82.489 46.52C83.139 45.85 83.949 45.515 84.919 45.515ZM92.9631 45.515C93.4531 45.515 93.9131 45.595 94.3431 45.755C94.7731 45.905 95.1431 46.14 95.4531 46.46C96.1431 47.16 96.4881 48.13 96.4881 49.37C96.4881 50.59 96.1431 51.55 95.4531 52.25C94.8331 52.89 94.0031 53.21 92.9631 53.21C91.9231 53.21 91.0831 52.89 90.4431 52.25C89.7531 51.56 89.4081 50.6 89.4081 49.37C89.4081 48.12 89.7531 47.15 90.4431 46.46C91.0731 45.83 91.9131 45.515 92.9631 45.515ZM94.7181 49.355C94.7181 48.585 94.5681 48.01 94.2681 47.63C93.9681 47.24 93.5481 47.045 93.0081 47.045C92.4781 47.045 92.0431 47.24 91.7031 47.63C91.3631 48.01 91.1931 48.585 91.1931 49.355C91.1931 50.125 91.3431 50.705 91.6431 51.095C91.9531 51.475 92.3731 51.665 92.9031 51.665C93.4331 51.665 93.8681 51.475 94.2081 51.095C94.5481 50.705 94.7181 50.125 94.7181 49.355ZM98.5942 42.71H100.364V53H98.5942V42.71ZM105.55 48.74C106.13 48.74 106.8 48.835 107.56 49.025V48.305C107.56 47.795 107.455 47.42 107.245 47.18C107.045 46.93 106.71 46.805 106.24 46.805C105.78 46.805 105.425 46.9 105.175 47.09C104.925 47.27 104.8 47.53 104.8 47.87H102.865C102.865 47.04 103.155 46.44 103.735 46.07C104.325 45.7 105.145 45.515 106.195 45.515C107.695 45.515 108.665 46.04 109.105 47.09C109.255 47.45 109.33 47.875 109.33 48.365V53H107.785L107.65 52.025C107.18 52.815 106.46 53.21 105.49 53.21C104.55 53.21 103.82 52.98 103.3 52.52C102.82 52.08 102.58 51.525 102.58 50.855C102.58 50.175 102.845 49.655 103.375 49.295C103.905 48.925 104.63 48.74 105.55 48.74ZM107.56 50.15C106.97 49.99 106.42 49.91 105.91 49.91C104.95 49.91 104.47 50.23 104.47 50.87C104.47 51.14 104.58 51.375 104.8 51.575C105.02 51.765 105.37 51.86 105.85 51.86C106.34 51.86 106.74 51.7 107.05 51.38C107.37 51.05 107.54 50.64 107.56 50.15ZM116.02 52.82C115.36 53.08 114.84 53.21 114.46 53.21C114.08 53.21 113.745 53.165 113.455 53.075C113.175 52.985 112.925 52.85 112.705 52.67C112.245 52.26 112.015 51.695 112.015 50.975V46.895H110.995V45.71H112.015V43.79H113.785V45.71H115.765V46.895H113.785V50.915C113.785 51.515 114.07 51.815 114.64 51.815C114.93 51.815 115.305 51.735 115.765 51.575L116.02 52.82ZM118.818 50.78C118.838 51.47 119.343 51.815 120.333 51.815C120.713 51.815 121.023 51.735 121.263 51.575C121.513 51.405 121.638 51.21 121.638 50.99C121.638 50.77 121.563 50.6 121.413 50.48C121.263 50.36 121.028 50.25 120.708 50.15L119.118 49.58C117.938 49.17 117.348 48.5 117.348 47.57C117.348 46.95 117.623 46.455 118.173 46.085C118.733 45.705 119.478 45.515 120.408 45.515C121.348 45.515 122.068 45.72 122.568 46.13C123.078 46.54 123.343 47.055 123.363 47.675H121.698C121.678 47.435 121.563 47.245 121.353 47.105C121.143 46.965 120.843 46.895 120.453 46.895C120.063 46.895 119.758 46.975 119.538 47.135C119.328 47.285 119.223 47.46 119.223 47.66C119.223 48.01 119.518 48.27 120.108 48.44L121.833 49.085C122.403 49.275 122.838 49.52 123.138 49.82C123.448 50.11 123.603 50.49 123.603 50.96C123.603 51.56 123.318 52.08 122.748 52.52C122.158 52.98 121.378 53.21 120.408 53.21C119.438 53.21 118.658 53 118.068 52.58C117.478 52.15 117.178 51.55 117.168 50.78H118.818ZM147.798 43.265H151.728C152.808 43.265 153.643 43.52 154.233 44.03C154.793 44.5 155.073 45.105 155.073 45.845C155.073 46.395 154.918 46.865 154.608 47.255C154.308 47.645 153.883 47.92 153.333 48.08C153.883 48.19 154.338 48.44 154.698 48.83C155.058 49.21 155.238 49.7 155.238 50.3C155.238 51.5 154.643 52.32 153.453 52.76C153.003 52.92 152.433 53 151.743 53H147.798V43.265ZM151.698 51.455C152.268 51.455 152.678 51.34 152.928 51.11C153.188 50.88 153.318 50.575 153.318 50.195C153.318 49.815 153.183 49.51 152.913 49.28C152.653 49.04 152.248 48.92 151.698 48.92H149.568V51.455H151.698ZM149.568 47.375H151.653C152.183 47.375 152.583 47.26 152.853 47.03C153.123 46.8 153.258 46.49 153.258 46.1C153.258 45.7 153.123 45.385 152.853 45.155C152.593 44.915 152.198 44.795 151.668 44.795H149.568V47.375ZM157.675 45.695H159.445V53H157.675V45.695ZM157.465 43.355C157.465 43.035 157.56 42.785 157.75 42.605C157.94 42.415 158.21 42.32 158.56 42.32C158.9 42.32 159.165 42.415 159.355 42.605C159.555 42.785 159.655 43.035 159.655 43.355C159.655 43.675 159.555 43.93 159.355 44.12C159.165 44.3 158.9 44.39 158.56 44.39C158.21 44.39 157.94 44.3 157.75 44.12C157.56 43.93 157.465 43.675 157.465 43.355ZM163.437 50.78C163.457 51.47 163.962 51.815 164.952 51.815C165.332 51.815 165.642 51.735 165.882 51.575C166.132 51.405 166.257 51.21 166.257 50.99C166.257 50.77 166.182 50.6 166.032 50.48C165.882 50.36 165.647 50.25 165.327 50.15L163.737 49.58C162.557 49.17 161.967 48.5 161.967 47.57C161.967 46.95 162.242 46.455 162.792 46.085C163.352 45.705 164.097 45.515 165.027 45.515C165.967 45.515 166.687 45.72 167.187 46.13C167.697 46.54 167.962 47.055 167.982 47.675H166.317C166.297 47.435 166.182 47.245 165.972 47.105C165.762 46.965 165.462 46.895 165.072 46.895C164.682 46.895 164.377 46.975 164.157 47.135C163.947 47.285 163.842 47.46 163.842 47.66C163.842 48.01 164.137 48.27 164.727 48.44L166.452 49.085C167.022 49.275 167.457 49.52 167.757 49.82C168.067 50.11 168.222 50.49 168.222 50.96C168.222 51.56 167.937 52.08 167.367 52.52C166.777 52.98 165.997 53.21 165.027 53.21C164.057 53.21 163.277 53 162.687 52.58C162.097 52.15 161.797 51.55 161.787 50.78H163.437ZM173.132 45.515C173.592 45.515 174.002 45.595 174.362 45.755C174.732 45.905 175.042 46.105 175.292 46.355C175.792 46.835 176.087 47.44 176.177 48.17L174.392 48.215C174.312 47.895 174.162 47.63 173.942 47.42C173.732 47.21 173.487 47.105 173.207 47.105C172.927 47.105 172.687 47.15 172.487 47.24C172.287 47.32 172.112 47.45 171.962 47.63C171.622 48.05 171.452 48.63 171.452 49.37C171.452 50.11 171.612 50.67 171.932 51.05C172.252 51.42 172.637 51.605 173.087 51.605C173.547 51.605 173.877 51.5 174.077 51.29C174.287 51.07 174.392 50.775 174.392 50.405H176.177C176.177 51.205 175.912 51.87 175.382 52.4C174.842 52.94 174.087 53.21 173.117 53.21C172.157 53.21 171.352 52.86 170.702 52.16C170.012 51.41 169.667 50.475 169.667 49.355C169.667 48.175 170.012 47.23 170.702 46.52C171.352 45.85 172.162 45.515 173.132 45.515ZM183.156 51.68C182.696 52.65 181.956 53.135 180.936 53.135C179.646 53.135 178.796 52.63 178.386 51.62C178.236 51.27 178.161 50.845 178.161 50.345V45.695H179.931V50.165C179.931 50.645 180.046 51.005 180.276 51.245C180.506 51.475 180.786 51.59 181.116 51.59C181.456 51.59 181.741 51.545 181.971 51.455C182.201 51.355 182.401 51.21 182.571 51.02C182.941 50.59 183.136 50.015 183.156 49.295V45.695H184.926V53H183.156V51.68ZM187.865 45.695H189.635V53H187.865V45.695ZM187.655 43.355C187.655 43.035 187.75 42.785 187.94 42.605C188.13 42.415 188.4 42.32 188.75 42.32C189.09 42.32 189.355 42.415 189.545 42.605C189.745 42.785 189.845 43.035 189.845 43.355C189.845 43.675 189.745 43.93 189.545 44.12C189.355 44.3 189.09 44.39 188.75 44.39C188.4 44.39 188.13 44.3 187.94 44.12C187.75 43.93 187.655 43.675 187.655 43.355ZM196.747 52.82C196.087 53.08 195.567 53.21 195.187 53.21C194.807 53.21 194.472 53.165 194.182 53.075C193.902 52.985 193.652 52.85 193.432 52.67C192.972 52.26 192.742 51.695 192.742 50.975V46.895H191.722V45.71H192.742V43.79H194.512V45.71H196.492V46.895H194.512V50.915C194.512 51.515 194.797 51.815 195.367 51.815C195.657 51.815 196.032 51.735 196.492 51.575L196.747 52.82ZM199.545 50.78C199.565 51.47 200.07 51.815 201.06 51.815C201.44 51.815 201.75 51.735 201.99 51.575C202.24 51.405 202.365 51.21 202.365 50.99C202.365 50.77 202.29 50.6 202.14 50.48C201.99 50.36 201.755 50.25 201.435 50.15L199.845 49.58C198.665 49.17 198.075 48.5 198.075 47.57C198.075 46.95 198.35 46.455 198.9 46.085C199.46 45.705 200.205 45.515 201.135 45.515C202.075 45.515 202.795 45.72 203.295 46.13C203.805 46.54 204.07 47.055 204.09 47.675H202.425C202.405 47.435 202.29 47.245 202.08 47.105C201.87 46.965 201.57 46.895 201.18 46.895C200.79 46.895 200.485 46.975 200.265 47.135C200.055 47.285 199.95 47.46 199.95 47.66C199.95 48.01 200.245 48.27 200.835 48.44L202.56 49.085C203.13 49.275 203.565 49.52 203.865 49.82C204.175 50.11 204.33 50.49 204.33 50.96C204.33 51.56 204.045 52.08 203.475 52.52C202.885 52.98 202.105 53.21 201.135 53.21C200.165 53.21 199.385 53 198.795 52.58C198.205 52.15 197.905 51.55 197.895 50.78H199.545Z" fill="#1A7A77"/>
<path d="M139.597 47.84C139.157 49.09 138.607 50.125 137.947 50.945L138.202 51.17C138.382 51.33 138.552 51.45 138.712 51.53C138.872 51.61 139.067 51.65 139.297 51.65C139.537 51.65 139.742 51.565 139.912 51.395C140.082 51.215 140.177 50.93 140.197 50.54H141.802C141.782 51.36 141.577 52.01 141.187 52.49C140.807 52.97 140.237 53.21 139.477 53.21C138.997 53.21 138.552 53.115 138.142 52.925C137.742 52.735 137.317 52.435 136.867 52.025C135.867 52.815 134.757 53.21 133.537 53.21C132.417 53.21 131.467 52.925 130.687 52.355C129.907 51.775 129.517 51.065 129.517 50.225C129.517 48.925 130.432 48.13 132.262 47.84L132.022 47.615C131.302 46.965 130.942 46.25 130.942 45.47C130.942 44.78 131.227 44.22 131.797 43.79C132.407 43.33 133.217 43.1 134.227 43.1C135.197 43.1 135.987 43.33 136.597 43.79C137.157 44.22 137.437 44.76 137.437 45.41C137.437 46.06 137.227 46.61 136.807 47.06C136.397 47.5 135.767 47.88 134.917 48.2L136.822 49.925C137.432 49.195 137.957 48.28 138.397 47.18L139.597 47.84ZM133.267 48.74C132.067 48.91 131.467 49.37 131.467 50.12C131.467 50.54 131.647 50.895 132.007 51.185C132.377 51.465 132.892 51.605 133.552 51.605C134.312 51.605 135.027 51.385 135.697 50.945L133.267 48.74ZM133.942 47.315C134.482 47.085 134.872 46.84 135.112 46.58C135.362 46.32 135.487 46.03 135.487 45.71C135.487 45.38 135.372 45.12 135.142 44.93C134.912 44.73 134.592 44.63 134.182 44.63C133.772 44.63 133.452 44.74 133.222 44.96C133.002 45.17 132.892 45.425 132.892 45.725C132.892 46.165 133.127 46.59 133.597 47L133.942 47.315Z" fill="#2B1E1D"/>
</svg>
